<?xml version="1.0" encoding="UTF-8" standalone="no"?>
<svg
   width="694.52"
   height="321.99"
   version="1.1"
   viewBox="0 0 183.76 85.193"
   id="svg4"
   sodipodi:docname="drawing_color.svg"
   inkscape:version="1.1 (c68e22c387, 2021-05-23)"
   xmlns:inkscape="http://www.inkscape.org/namespaces/inkscape"
   xmlns:sodipodi="http://sodipodi.sourceforge.net/DTD/sodipodi-0.dtd"
   xmlns:xlink="http://www.w3.org/1999/xlink"
   xmlns="http://www.w3.org/2000/svg"
   xmlns:svg="http://www.w3.org/2000/svg">
  <defs
     id="defs8">
    <linearGradient
       inkscape:collect="always"
       id="linearGradient12091">
      <stop
         style="stop-color:#0f5e74;stop-opacity:1"
         offset="0"
         id="stop12087" />
      <stop
         style="stop-color:#2b2282;stop-opacity:1"
         offset="1"
         id="stop12089" />
    </linearGradient>
    <linearGradient
       inkscape:collect="always"
       xlink:href="#linearGradient12091"
       id="linearGradient12049"
       x1="100.45508"
       y1="40.257812"
       x2="99.367188"
       y2="195.11914"
       gradientUnits="userSpaceOnUse" />
  </defs>
  <sodipodi:namedview
     id="namedview6"
     pagecolor="#ffffff"
     bordercolor="#666666"
     borderopacity="1.0"
     inkscape:pageshadow="2"
     inkscape:pageopacity="0.0"
     inkscape:pagecheckerboard="0"
     showgrid="false"
     inkscape:zoom="2.5600001"
     inkscape:cx="596.87499"
     inkscape:cy="117.96875"
     inkscape:window-width="1920"
     inkscape:window-height="1000"
     inkscape:window-x="-11"
     inkscape:window-y="-11"
     inkscape:window-maximized="1"
     inkscape:current-layer="svg4" />
  <path
     style="stroke-width:3.7795;fill:#ffd741;fill-opacity:1"
     d="M 100.45508,40.257812 C 88.762442,40.051452 76.908009,42.56989 65.720703,47.957031 34.177415,63.146072 15.574829,98.754215 20.892578,133.76367 c 3.245793,21.37191 14.547912,41.04875 30.664063,53.39258 11.125321,8.52125 22.77463,13.49729 36.810547,15.72266 5.222506,0.82797 20.742762,0.29554 26.210932,-0.89844 15.30891,-3.34312 27.97368,-10.28932 39.16211,-21.47852 11.5732,-11.57319 18.94595,-25.27645 22.48243,-41.78906 1.98722,-9.27979 1.98722,-24.30066 0,-33.58008 C 172.68909,88.632305 165.347,74.977536 153.73828,63.324219 138.98427,48.513889 119.94335,40.602131 100.45703,40.257812 Z"
     id="path920"
     transform="matrix(0.26458561,0,0,0.26458561,0,-4.5828884e-4)" />
  <path
     style="stroke-width:3.7795;fill:#a2382a;fill-opacity:1"
     d="m 626.1543,53.123094 -3.83008,4.320312 c -15.32888,17.286661 -30.40747,35.546211 -32.10938,38.88086 -3.92689,7.695434 -4.07354,15.783264 -0.42187,23.390624 0.92083,1.91844 4.20897,6.94401 7.30664,11.16797 13.27245,18.09887 16.13867,25.35677 16.13867,40.875 0,18.99801 -7.14691,35.68744 -21.42773,50.04688 -6.82691,6.86394 -13.1217,11.6949 -22.53907,17.29687 l -6.89062,4.09961 H 694.54297 V 53.123047 h -34.5293 z"
     id="path930"
     transform="matrix(0.26458561,0,0,0.26458561,0,-4.5828884e-4)" />
  <path
     style="stroke-width:3.7795;fill:#e67f34;fill-opacity:1"
     d="M 216.09961,0 C 202.24961,0 191.1,10.286542 191.1,23.064453 c -0.002,17.03932 0,51.494141 0,51.494141 v 61.121096 c -4.70698,24.81049 -15.87414,42.35762 -32.48086,56.10742 -7.61795,6.30722 -11.90601,9.18997 -18.98047,12.75781 -21.24189,10.71298 -47.764662,13.4061 -67.769529,6.87891 -14.940351,-4.87479 -31.694262,-16.13831 -41.679688,-28.01953 -1.935971,-2.30372 -4.291015,-4.97658 -4.291015,-4.97658 0,0 -21.3085947,16.86459 -21.3085942,17.35744 0,0.85174 6.8385732,8.72509 12.2050782,14.05078 19.679075,19.5294 44.117206,30.96639 71.314453,33.37695 16.225375,1.43825 37.658835,-1.72287 53.949215,-7.95703 7.86967,-3.01162 19.77696,-9.12103 26.43946,-13.56836 23.59198,-15.74764 39.51079,-38.32808 46.64648,-66.16406 3.34043,-13.03397 3.40015,-14.02771 3.79492,-63.039065 l 0.3711,-46.080078 475.23242,-0.640625 V 0.00390625 L 238.40234,0 Z"
     id="path2"
     transform="matrix(0.26458561,0,0,0.26458561,0,-4.5828884e-4)" />
  <path
     style="stroke-width:3.7795;fill-opacity:1;fill:#ffffff"
     d="m 673.00977,205.32812 h 2.07617 c 0.20258,3e-5 0.23828,0.0338 0.23828,0.28711 v 3.76563 c 0,0.0166 -10e-4,0.0332 0.0137,0.0332 h 1.92578 c 0.0355,0 0.0508,-0.0162 0.0508,-0.0332 v -3.81641 c 0,-0.15197 0.11888,-0.23633 0.35547,-0.23633 h 1.70508 c 0.32084,3e-5 0.49023,0.0843 0.49023,0.23633 v 3.78321 c 0,0.0505 0.0168,0.0684 0.0508,0.0684 h 2.09375 c 0.0189,0 0.0332,-0.0172 0.0332,-0.0508 v -3.81835 c 0,-0.20261 0.10174,-0.21876 0.49023,-0.21876 h 1.67188 c 0.25315,3e-5 0.38867,0.11831 0.38867,0.3379 v 6.21484 c 0,0.20266 0.0177,0.28711 -0.26953,0.28711 h -11.31445 c -0.22148,0 -0.23633,-0.0681 -0.23633,-0.25391 v -6.26562 c 0,-0.27024 0.0504,-0.32032 0.23633,-0.32032 z"
     transform="matrix(0.26458561,0,0,0.26458561,0,-4.5828884e-4)"
     id="path1040" />
  <path
     style="stroke-width:3.7795;fill-opacity:1;fill:#ffffff"
     d="m 681.08008,196.92578 h 0.002 c 2.8191,9.5e-4 3.68164,2.04365 3.68164,4.20508 0,1.21609 -0.18576,2.24603 -0.57422,3.10742 -0.0506,0.11822 -0.15275,0.18555 -0.30468,0.18555 h -2.2461 c -0.1353,0 -0.16921,-0.0667 -0.10156,-0.21875 0.5405,-0.82762 0.81055,-1.63918 0.81055,-2.4668 0,-1.41877 -0.40538,-2.12695 -1.19922,-2.12695 -0.40535,0 -0.70967,0.16759 -0.96289,0.58984 -0.13493,0.21956 -0.23565,0.40531 -0.32032,0.57422 -0.0843,0.15201 -0.18538,0.40506 -0.32031,0.75977 l -0.30469,0.76172 c -0.62494,1.36809 -1.52037,2.22851 -3.41211,2.22851 -2.00993,0 -3.22656,-1.51946 -3.22656,-3.86719 0,-1.24986 0.18612,-2.19675 0.54102,-2.85547 0.0677,-0.11826 0.18652,-0.18554 0.35547,-0.18554 h 2.16211 c 0.11829,0 0.15163,0.13627 0.084,0.2207 -0.52372,0.62494 -0.77734,1.36712 -0.77734,2.22852 0,1.11475 0.33808,1.67187 1.01367,1.67187 0.32092,0 0.52412,-0.10164 0.77734,-0.43945 l 0.25196,-0.4043 c 0.0506,-0.10134 0.15413,-0.30408 0.28906,-0.625 0.11792,-0.32092 0.20131,-0.5249 0.25195,-0.60937 0.40535,-0.82762 0.62621,-1.2318 1.1836,-1.83985 0.54012,-0.60765 1.31639,-0.89416 2.3457,-0.89453 z"
     transform="matrix(0.26458561,0,0,0.26458561,0,-4.5828884e-4)"
     id="path1038" />
  <path
     style="stroke-width:3.7795;fill-opacity:1;fill:#ffffff"
     d="m 672.95703,185.9707 h 2.17969 c 0.18595,0 0.18555,-2.5e-4 0.18555,0.18555 v 3.32813 c 0,0.135 0.0336,0.15234 0.18554,0.15234 h 8.79883 c 0.18595,0 0.28711,0.0667 0.28711,0.21875 v 2.39844 c 0,0.25322 -6.8e-4,0.26953 -0.25391,0.26953 h -8.8164 c -0.13493,0 -0.20117,0.001 -0.20117,0.16992 v 3.27734 c 0,0.18595 -0.0172,0.21875 -0.20313,0.21875 h -2.11133 c -0.18595,0 -0.23633,-4.3e-4 -0.23633,-0.20312 v -9.79492 c 0,-0.18595 -4e-4,-0.22071 0.18555,-0.22071 z"
     transform="matrix(0.26458561,0,0,0.26458561,0,-4.5828884e-4)"
     id="path1036" />
  <path
     id="path1034"
     style="stroke-width:3.7795;fill:url(#linearGradient12049);fill-opacity:1"
     d="M 107.27148 51.558594 C 107.13123 51.557581 106.9967 51.560799 106.86523 51.568359 L 106.86523 51.570312 C 105.02462 51.681701 103.95075 52.683878 100.80859 55.013672 C 97.939872 57.140734 95.59375 59.025489 95.59375 59.203125 C 95.59375 59.380761 99.059648 59.525391 103.29688 59.525391 L 111 59.525391 L 115.11133 57.125 C 117.37215 55.805011 119.23405 54.529067 119.24805 54.289062 C 119.26203 54.049065 117.1848 53.413188 114.63281 52.876953 C 111.16365 52.148002 109.16099 51.668012 107.70898 51.576172 C 107.55773 51.564862 107.41174 51.559606 107.27148 51.558594 z M 84.714844 52.484375 C 83.285061 52.484375 72.581942 56.285598 69.513672 57.882812 L 66.472656 59.464844 L 71.074219 59.494141 C 75.647786 59.523772 75.705349 59.503114 80.582031 56.003906 C 83.27483 54.071949 85.129498 52.490975 84.714844 52.484375 z M 130.69531 58.960938 C 130.48339 58.958414 130.24781 58.999125 130.03125 59.085938 C 129.52072 59.290106 129.67243 59.442416 130.41797 59.472656 C 131.09261 59.500247 131.47045 59.349504 131.25781 59.136719 C 131.1515 59.030511 130.96063 58.970491 130.73828 58.962891 C 130.72438 58.962347 130.70944 58.961106 130.69531 58.960938 z M 57.908203 64.642578 L 52.589844 69.738281 L 47.271484 74.832031 L 53.671875 74.777344 L 60.072266 74.720703 L 64.828125 69.681641 L 69.582031 64.642578 L 57.908203 64.642578 z M 88.816406 64.642578 L 86.277344 67.365234 C 84.880102 68.861045 82.746283 71.164386 81.537109 72.484375 L 81.537109 72.486328 L 79.337891 74.884766 L 91.179688 74.884766 L 95.464844 71.205078 C 97.822493 69.181007 100.61442 66.886312 101.66992 66.105469 L 103.58984 64.685547 L 96.203125 64.666016 L 88.816406 64.642578 z M 121.39062 64.642578 L 116.9707 67.816406 C 114.53935 69.56053 111.5406 71.857544 110.30859 72.919922 L 108.07031 74.851562 L 129.50977 74.839844 L 150.94922 74.832031 L 145.63086 69.738281 L 140.3125 64.642578 L 121.39062 64.642578 z M 49.910156 79.363281 C 45.108534 79.363281 43.731905 79.575306 43.029297 80.421875 C 41.279995 82.529321 37.472336 89.283221 37.765625 89.757812 C 37.930789 90.025294 40.602175 90.244141 43.701172 90.244141 L 49.335938 90.244141 L 52.623047 85.078125 C 54.431233 82.237268 55.912109 79.789852 55.912109 79.638672 C 55.912109 79.487492 53.211016 79.363281 49.910156 79.363281 z M 75.841797 79.363281 L 72.865234 84.140625 C 71.227693 86.768054 70.071542 89.215357 70.296875 89.580078 C 70.522208 89.944799 72.220817 90.244141 74.070312 90.244141 L 77.431641 90.244141 L 82.041016 84.802734 L 86.648438 79.363281 L 75.841797 79.363281 z M 103.30078 79.363281 L 99.457031 84.003906 C 97.342064 86.555897 95.606863 89.003351 95.601562 89.443359 C 95.593626 90.07291 102.45561 90.244141 127.80469 90.244141 C 145.52183 90.244141 160.18542 90.074304 160.39258 89.867188 C 160.76259 89.49679 158.08587 84.581549 155.63086 81.123047 L 154.38281 79.363281 L 103.30078 79.363281 z M 75.017578 94.023438 L 71.09375 94.214844 L 67.171875 94.404297 L 65.400391 99.205078 C 64.425923 101.84502 63.613843 104.21824 63.595703 104.48242 C 63.57741 104.74653 64.929589 104.94869 66.601562 104.93359 L 69.642578 104.9043 L 72.330078 99.462891 L 75.017578 94.023438 z M 35.335938 94.083984 L 34.476562 96.164062 C 34.002576 97.308123 33.166008 99.766454 32.617188 101.62695 L 31.619141 105.00977 L 43.783203 104.64258 L 45.271484 100.48242 C 46.090955 98.194493 46.972858 95.819107 47.230469 95.203125 C 47.65793 94.181494 47.15816 94.083984 41.519531 94.083984 L 35.335938 94.083984 z M 92.466797 94.083984 L 91.185547 96.164062 C 90.480633 97.308123 89.308677 99.755515 88.582031 101.60352 L 87.261719 104.96289 L 97.652344 104.96289 L 108.04297 104.96094 L 110.28125 100.04883 C 111.51321 97.346185 112.61901 94.898506 112.73633 94.609375 C 112.85349 94.320206 108.33961 94.083984 102.70703 94.083984 L 92.466797 94.083984 z M 115.75195 94.083984 L 117.33594 95.65625 C 118.20787 96.521376 120.93838 98.953847 123.40234 101.06055 L 127.88281 104.89062 L 147.20703 104.92578 L 166.5332 104.96289 L 165.60156 101.82812 C 165.08955 100.10388 164.23872 97.656466 163.70898 96.388672 L 162.74414 94.083984 L 115.75195 94.083984 z M 36.783203 110.08008 C 33.610506 110.08008 30.887318 110.29441 30.730469 110.55859 C 30.57362 110.82278 30.239958 113.1277 29.988281 115.67969 L 29.529297 120.32031 L 35.341797 120.32031 L 41.515625 120.25 L 42.152344 113.75977 L 42.552734 110.08008 L 36.783203 110.08008 z M 65.125 110.08008 C 62.551844 110.08008 62.454505 110.15428 62.070312 112.47852 C 61.85216 113.79869 61.669816 116.10365 61.666016 117.59961 C 61.659024 120.25191 61.712245 120.32031 63.773438 120.32031 L 65.886719 120.32031 L 66.833984 115.19922 L 67.78125 110.08008 L 65.125 110.08008 z M 85.527344 110.08008 L 84.792969 114.52539 C 84.389394 116.96902 84.060547 119.2703 84.060547 119.64258 C 84.060547 120.08788 87.310523 120.32031 93.564453 120.32031 L 103.07031 120.32031 L 104.22266 116 C 104.85704 113.62383 105.50652 111.31892 105.66602 110.87891 C 105.89014 110.26035 103.64171 110.08008 95.742188 110.08008 L 85.527344 110.08008 z M 134.32812 110.08008 L 136.8457 112.16016 C 138.23062 113.30413 139.92938 114.69878 140.61914 115.25977 C 141.80382 116.22331 141.81395 116.3646 140.80664 117.80273 C 140.22018 118.64004 139.74023 119.52991 139.74023 119.78125 C 139.74023 120.03225 146.25624 120.26472 154.22266 120.29492 L 168.70703 120.35156 L 168.24805 115.70898 C 167.99637 113.15491 167.6538 110.84326 167.48633 110.57227 C 167.3189 110.30116 159.78917 110.08008 150.75391 110.08008 L 134.32812 110.08008 z M 29.492188 124.79883 L 29.939453 129.3457 C 30.185801 131.84569 30.541683 134.29314 30.730469 134.78516 C 30.988986 135.45855 32.483326 135.67969 36.773438 135.67969 L 42.472656 135.67969 L 42.166016 133.2793 C 41.997034 131.95912 41.687257 129.51185 41.478516 127.83984 L 41.099609 124.79883 L 29.492188 124.79883 z M 63.898438 124.79883 C 61.305508 124.79883 61.231247 125.12622 62.363281 131.62695 C 63.060636 135.63129 63.094561 135.67969 65.158203 135.67969 L 67.246094 135.67969 L 66.71875 132.95898 C 66.429392 131.46306 66.181136 129.01553 66.166016 127.51953 C 66.138614 124.84313 66.102715 124.79883 63.898438 124.79883 z M 84.054688 124.79883 L 84.0625 127.83984 C 84.066506 129.51189 84.248607 131.95931 84.466797 133.2793 L 84.863281 135.67969 L 99.978516 135.61523 C 115.21513 135.55095 120.70309 135.07409 116.05469 134.21875 C 114.82257 133.99206 111.2901 133.46437 108.20312 133.04492 C 101.98283 132.19945 101.54532 131.76828 102.09766 127.03711 L 102.35938 124.79883 L 84.054688 124.79883 z M 146.24023 124.79883 L 143.05273 129.18164 L 139.86523 133.56445 L 136.53516 132.88086 C 133.56001 132.27142 133.11216 132.32766 132.33203 133.39453 C 131.85168 134.05137 131.61131 134.83272 131.79688 135.13281 C 131.98207 135.43287 140.00549 135.67969 149.62695 135.67969 C 164.01753 135.67969 167.18248 135.52099 167.46484 134.78516 C 167.65363 134.29307 168.00951 131.84565 168.25586 129.3457 L 168.70312 124.79883 L 146.24023 124.79883 z M 32.060547 140.79883 L 32.414062 142.57617 C 32.609469 143.55317 33.386767 146.00074 34.140625 148.01562 L 35.511719 151.67969 L 69.324219 151.67969 L 69.728516 149.1582 L 70.130859 146.63672 L 73.132812 146.99219 L 76.310547 147.33203 L 77.279297 145.60156 L 78.423828 143.85352 L 85.242188 144.08594 L 92.060547 144.32031 L 92.261719 142.55859 L 92.464844 140.79883 L 32.060547 140.79883 z M 137.81836 140.79883 L 137.82031 146.24023 L 137.82031 151.67969 L 162.68555 151.67969 L 164.05664 148.01562 C 164.81046 146.0007 165.5878 143.55325 165.7832 142.57617 L 166.13867 140.79883 L 137.81836 140.79883 z M 99.078125 154.24023 C 52.589428 154.24025 37.322266 154.42258 37.322266 154.98242 C 37.322266 155.8827 40.110338 160.8143 42.240234 163.67969 L 43.787109 165.75977 L 154.375 165.75977 L 155.92188 163.67969 C 158.0517 160.81407 160.83984 155.88247 160.83984 154.98242 C 160.83984 154.42243 145.56997 154.24025 99.082031 154.24023 L 99.080078 154.24023 L 99.078125 154.24023 z M 45.980469 168.95898 L 51.070312 174.08008 L 56.160156 179.19922 L 141.97656 179.19922 L 147.06641 174.08008 L 152.15625 168.95898 L 45.980469 168.95898 z M 99.367188 183.11719 L 99.367188 183.11914 C 92.639301 183.11914 85.885132 183.14255 80.724609 183.18945 L 61.958984 183.35938 L 67.716797 186.3418 C 74.105655 189.65044 79.69025 191.68736 85.957031 192.99805 C 88.817353 193.59627 93.414622 193.79741 100.67578 193.63867 C 113.56877 193.35672 118.2594 192.25224 128.83594 187.00781 L 136.19531 183.35938 L 117.8418 183.1875 C 112.79428 183.1399 106.09507 183.11719 99.367188 183.11719 z "
     transform="matrix(0.26458561,0,0,0.26458561,0,-4.5828884e-4)" />
  <path
     id="path1030"
     style="stroke-width:3.7795;fill-opacity:1;fill:#ffffff"
     d="M 684.45117 174.70898 C 684.40765 174.71098 684.35432 174.72807 684.29102 174.75977 L 672.73828 180.36719 C 672.53572 180.46852 672.55247 180.58686 672.78906 180.70508 L 684.27344 186.3125 C 684.49303 186.41383 684.59375 186.37916 684.59375 186.19336 L 684.59375 183.86328 C 684.59375 183.59305 684.57947 183.50823 684.375 183.42383 L 682.97266 182.76562 L 682.97266 178.30664 L 684.39062 177.63086 C 684.52596 177.56328 684.59375 177.44498 684.59375 177.29297 L 684.59375 174.91016 C 684.59375 174.77078 684.54687 174.70498 684.45117 174.70898 z M 680.40625 179.50586 L 680.40625 181.54883 L 678.39648 180.60352 C 678.31218 180.55283 678.31218 180.50187 678.39648 180.45117 L 680.40625 179.50586 z "
     transform="matrix(0.26458561,0,0,0.26458561,0,-4.5828884e-4)" />
  <path
     id="path1022"
     style="stroke-width:3.7795;fill-opacity:1;fill:#ffffff"
     d="M 680.74414 165.97852 C 678.8716 165.99676 677.56116 167.0665 677.32812 167.86328 C 676.90259 167.63849 676.32785 167.55859 675.64258 167.55859 C 673.66643 167.55859 672.77148 168.67922 672.77148 171.73633 L 672.77148 173.92383 C 672.77148 174.21094 672.83776 174.27734 673.125 174.27734 L 684.20508 174.27734 C 684.49232 174.27734 684.59375 174.1941 684.59375 173.92383 L 684.59375 170.73047 C 684.59375 169.63261 684.52748 168.85554 684.24023 167.99414 C 684.0883 167.555 683.88439 167.19993 683.63086 166.92969 C 683.10729 166.37231 682.22912 166.04088 681.03125 165.98438 C 680.93422 165.97937 680.83834 165.9776 680.74414 165.97852 z M 680.98047 168.7207 C 681.70674 168.7207 682.04492 169.12569 682.04492 170.62891 L 682.04492 171.55859 C 682.04492 171.67678 682.0294 171.67578 681.89258 171.67578 L 679.93359 171.67578 C 679.86593 171.67578 679.83203 171.62542 679.83203 171.54102 L 679.83203 170.47656 C 679.83203 169.14225 680.22041 168.7207 680.98047 168.7207 z M 676.25 169.81055 C 677.19586 169.87812 677.33135 170.57162 677.31445 171.4668 L 677.31445 171.55859 C 677.31445 171.67678 677.31361 171.67578 677.19531 171.67578 L 675.37305 171.67578 C 675.28873 171.67578 675.23633 171.64319 675.23633 171.55859 L 675.23633 171.4668 C 675.23633 170.38583 675.43918 169.81055 676.25 169.81055 z "
     transform="matrix(0.26458561,0,0,0.26458561,0,-4.5828884e-4)" />
  <path
     style="stroke-width:3.7795;fill-opacity:1;fill:#ffffff"
     d="m 682.24609,158.73047 h 1.97657 c 0.28724,0 0.37109,0.0501 0.37109,0.32031 v 5.77734 c 0,0.40553 -0.0341,0.43946 -0.43945,0.43946 h -11.16407 c -0.15193,0 -0.21875,-0.0673 -0.21875,-0.18555 v -2.16211 c 0,-0.33782 0.11706,-0.42383 0.4043,-0.42383 h 8.61524 c 0.11829,0 0.11718,10e-4 0.11718,-0.11718 v -3.34375 c 0,-0.25334 0.0677,-0.30469 0.33789,-0.30469 z"
     transform="matrix(0.26458561,0,0,0.26458561,0,-4.5828884e-4)"
     id="path1020" />
  <path
     style="stroke-width:3.7795;fill-opacity:1;fill:#ffffff"
     d="m 672.99023,155.39453 h 11.31641 c 0.21959,0 0.28711,0.0499 0.28711,0.26953 v 2.17969 c 0,0.27039 -0.0501,0.30469 -0.32031,0.30469 h -11.21485 c -0.25322,0 -0.28711,-0.0338 -0.28711,-0.28711 v -2.19727 c 0,-0.18576 0.0668,-0.26953 0.21875,-0.26953 z"
     transform="matrix(0.26458561,0,0,0.26458561,0,-4.5828884e-4)"
     id="path1018" />
  <path
     style="stroke-width:3.7795;fill-opacity:1;fill:#ffffff"
     d="m 681.08008,146.73828 h 0.002 c 2.81911,9.5e-4 3.68164,2.04365 3.68164,4.20508 0,1.21609 -0.18576,2.24798 -0.57422,3.10937 -0.0506,0.11823 -0.15275,0.18555 -0.30468,0.18555 h -2.2461 c -0.1353,0 -0.16921,-0.0687 -0.10156,-0.2207 0.5405,-0.82762 0.81055,-1.63723 0.81055,-2.46485 0,-1.41877 -0.40538,-2.1289 -1.19922,-2.1289 -0.40535,0 -0.70967,0.16954 -0.96289,0.59179 -0.13493,0.21958 -0.23565,0.40532 -0.32032,0.57422 -0.0843,0.15202 -0.18538,0.40506 -0.32031,0.75977 l -0.30469,0.75977 c -0.62494,1.3681 -1.52037,2.23046 -3.41211,2.23046 -2.00993,0 -3.22656,-1.52141 -3.22656,-3.86914 0,-1.24986 0.18612,-2.1948 0.54102,-2.85351 0.0677,-0.11826 0.18652,-0.18555 0.35547,-0.18555 h 2.16211 c 0.11829,0 0.15163,0.13432 0.084,0.21875 -0.52372,0.62494 -0.77734,1.36907 -0.77734,2.23047 0,1.11475 0.33808,1.67187 1.01367,1.67187 0.32092,0 0.52412,-0.10164 0.77734,-0.43945 l 0.25196,-0.40625 c 0.0506,-0.10134 0.15413,-0.30408 0.28906,-0.625 0.11792,-0.32092 0.20131,-0.52299 0.25195,-0.60742 0.40535,-0.82762 0.62621,-1.23375 1.1836,-1.8418 0.54012,-0.60766 1.31639,-0.89416 2.3457,-0.89453 z"
     transform="matrix(0.26458561,0,0,0.26458561,0,-4.5828884e-4)"
     id="path1014" />
  <path
     style="stroke-width:3.7795;fill-opacity:1;fill:#ffffff"
     d="m 673.11328,136.14062 c 0.0149,-9.2e-4 0.031,0 0.0469,0 h 11.16406 c 0.18595,3e-5 0.26953,0.0837 0.26953,0.26954 v 2.1289 c 0,0.25338 -0.1183,0.3711 -0.33789,0.3711 h -4.22266 c -0.1183,0 -0.16797,0.0497 -0.16797,0.16796 v 3.78321 c 0,0.0337 0.0168,0.0508 0.0508,0.0508 h 4.4082 c 0.18595,0 0.26953,0.085 0.26953,0.25391 v 2.21289 c 0,0.20269 -0.083,0.30468 -0.25195,0.30468 h -11.26758 c -0.20258,0 -0.30274,-0.0857 -0.30274,-0.27148 v -2.26367 c 0,-0.15201 0.085,-0.23633 0.25391,-0.23633 h 4.23828 c 0.0355,0 0.0508,-0.0162 0.0508,-0.0332 v -3.88477 c 0,-0.0508 -0.0333,-0.084 -0.084,-0.084 h -4.20508 c -0.16894,0 -0.25391,-0.102 -0.25391,-0.30469 v -2.11133 c 0,-0.2217 0.11829,-0.33964 0.3418,-0.35352 z"
     transform="matrix(0.26458561,0,0,0.26458561,0,-4.5828884e-4)"
     id="path1008" />
  <path
     id="path1002"
     style="stroke-width:3.7795;fill:#e67f34;fill-opacity:1"
     d="M 430.66992 127.33789 C 419.78135 127.33789 410.93164 136.18954 410.93164 147.07812 C 410.93164 157.96673 419.78135 166.82421 430.66992 166.82422 C 441.5585 166.82421 450.41602 157.96673 450.41602 147.07812 C 450.41602 136.18954 441.5585 127.33789 430.66992 127.33789 z M 430.66992 129.83398 C 440.2074 129.83399 447.91406 137.54064 447.91406 147.07812 C 447.91406 156.61563 440.2074 164.32031 430.66992 164.32031 C 421.13244 164.32031 413.42578 156.61563 413.42578 147.07812 C 413.42578 137.54064 421.13244 129.83399 430.66992 129.83398 z "
     transform="matrix(0.26458561,0,0,0.26458561,0,-4.5828884e-4)" />
  <path
     style="stroke-width:3.7795;fill-opacity:1;fill:#ffffff"
     d="m 673.00977,127.90625 h 2.07617 c 0.20258,0 0.23828,0.0338 0.23828,0.28711 v 3.76562 c 0,0.0166 -10e-4,0.0352 0.0137,0.0352 h 1.92578 c 0.0355,0 0.0508,-0.0181 0.0508,-0.0352 v -3.8164 c 0,-0.15201 0.11888,-0.23633 0.35547,-0.23633 h 1.70508 c 0.32084,0 0.49023,0.0843 0.49023,0.23633 v 3.7832 c 0,0.0506 0.0168,0.0684 0.0508,0.0684 h 2.09375 c 0.0189,0 0.0332,-0.0171 0.0332,-0.0508 V 128.125 c 0,-0.20258 0.10174,-0.21875 0.49023,-0.21875 h 1.67188 c 0.25315,0 0.38867,0.1183 0.38867,0.33789 v 6.21484 c 0,0.2027 0.0177,0.28711 -0.26953,0.28711 h -11.31445 c -0.22148,0 -0.23633,-0.0662 -0.23633,-0.25195 v -6.26758 c 0,-0.27023 0.0504,-0.32031 0.23633,-0.32031 z"
     transform="matrix(0.26458561,0,0,0.26458561,0,-4.5828884e-4)"
     id="path1004" />
  <path
     id="path988"
     style="stroke-width:3.7795;fill:#e67f34;fill-opacity:1"
     d="M 430.66992 118.43555 C 414.86623 118.43554 402.0293 131.27443 402.0293 147.07812 C 402.0293 162.88184 414.86623 175.71876 430.66992 175.71875 C 446.47362 175.71876 459.3125 162.88184 459.3125 147.07812 C 459.3125 131.27443 446.47362 118.43554 430.66992 118.43555 z M 430.66992 120.9375 C 445.12252 120.93749 456.81641 132.62553 456.81641 147.07812 C 456.81641 161.53075 445.12252 173.22462 430.66992 173.22461 C 416.21732 173.22462 404.53125 161.53075 404.53125 147.07812 C 404.53125 132.62553 416.21732 120.93749 430.66992 120.9375 z "
     transform="matrix(0.26458561,0,0,0.26458561,0,-4.5828884e-4)" />
  <path
     id="path986"
     style="stroke-width:3.7795;fill-opacity:1;fill:#ffffff"
     d="M 678.68359 116.68164 C 676.96082 116.68164 675.54123 117.27277 674.44336 118.45508 C 673.32864 119.63739 672.77148 121.31141 672.77148 123.49023 L 672.77148 126.58008 C 672.77148 126.69832 672.85645 126.76566 673.02539 126.76562 L 684.24023 126.76562 C 684.47683 126.76563 684.59375 126.66558 684.59375 126.46289 L 684.59375 123.43945 C 684.59375 121.29441 684.03732 119.6205 682.93945 118.45508 C 681.82469 117.27277 680.4064 116.68164 678.68359 116.68164 z M 678.78516 119.43555 C 679.68033 119.43555 680.44024 119.73961 681.08203 120.34766 C 681.72387 120.93881 682.04492 121.8 682.04492 122.93164 L 682.04492 123.77734 C 682.04492 123.96317 681.99259 124.01367 681.80664 124.01367 L 675.45703 124.01367 C 675.37277 124.01367 675.32227 123.97853 675.32227 123.92773 L 675.32227 123.15234 C 675.32227 121.91937 675.66043 120.99017 676.33594 120.36523 C 677.01152 119.7403 677.82241 119.43555 678.78516 119.43555 z "
     transform="matrix(0.26458561,0,0,0.26458561,0,-4.5828884e-4)" />
  <path
     id="path982"
     style="stroke-width:3.7795;fill:#e67f34;fill-opacity:1"
     d="M 430.66992 110.47852 C 410.47241 110.47851 394.07223 126.88063 394.07227 147.07812 C 394.07223 167.27565 410.47241 183.67579 430.66992 183.67578 C 450.86743 183.67579 467.26953 167.27565 467.26953 147.07812 C 467.26953 126.88063 450.86743 110.47851 430.66992 110.47852 z M 430.66992 112.98047 C 449.5163 112.98047 464.76758 128.23173 464.76758 147.07812 C 464.76758 165.92455 449.5163 181.17383 430.66992 181.17383 C 411.82351 181.17383 396.57422 165.92455 396.57422 147.07812 C 396.57422 128.23173 411.82351 112.98047 430.66992 112.98047 z "
     transform="matrix(0.26458561,0,0,0.26458561,0,-4.5828884e-4)" />
  <path
     style="stroke-width:3.7795;fill-opacity:1;fill:#ffffff"
     d="m 673.10547,109.13281 h 11.19726 c 0.27213,0 0.28711,0.0513 0.28711,0.30469 v 2.14453 c 0,0.27039 -0.0325,0.30469 -0.30273,0.30469 h -8.1582 c -0.0491,0 -0.0496,0.0152 -0.0156,0.0488 l 1.19922,1.4707 c 0.0525,0.0676 0.052,0.18555 -0.0156,0.18555 l -2.38477,-0.0508 c -0.21959,0 -0.38908,-0.102 -0.54102,-0.30469 l -1.51953,-1.82422 c -0.0503,-0.0675 -0.084,-0.15131 -0.084,-0.26953 v -1.6543 c 0,-0.23648 0.1183,-0.35547 0.33789,-0.35547 z"
     transform="matrix(0.26458561,0,0,0.26458561,0,-4.5828884e-4)"
     id="path972" />
  <path
     id="path966"
     style="stroke-width:3.7795;fill:#e67f34;fill-opacity:1"
     d="M 430.66992 101.58398 C 405.55733 101.58399 385.17578 121.96553 385.17578 147.07812 C 385.17578 172.19074 405.55733 192.57812 430.66992 192.57812 C 455.78251 192.57812 476.17186 172.19074 476.17188 147.07812 C 476.17188 121.96553 455.78251 101.58399 430.66992 101.58398 z M 430.66992 104.07812 C 454.43142 104.07816 473.66992 123.31663 473.66992 147.07812 C 473.66992 170.83965 454.43142 190.07616 430.66992 190.07617 C 406.90843 190.07616 387.67188 170.83965 387.67188 147.07812 C 387.67188 123.31663 406.90843 104.07816 430.66992 104.07812 z "
     transform="matrix(0.26458561,0,0,0.26458561,0,-4.5828884e-4)" />
  <path
     id="path964"
     style="stroke-width:3.7795;fill-opacity:1;fill:#ffffff"
     d="M 676.58789 99.158203 C 675.35491 99.158203 674.39232 99.581964 673.66602 100.44336 C 672.93975 101.28786 672.58594 102.33412 672.58594 103.58398 C 672.58594 104.81696 672.9396 105.86517 673.66602 106.72656 C 674.39232 107.57107 675.40524 107.99219 676.72266 107.99219 C 677.78674 107.99219 678.6833 107.65538 679.44336 106.96289 C 680.18652 106.2704 680.55859 105.45963 680.55859 104.56445 C 680.55859 103.9733 680.40634 103.49991 680.11914 103.16211 C 680.06854 103.09451 680.13344 103.12793 680.15234 103.14453 L 684.35742 106.08398 C 684.50935 106.18531 684.59375 106.15133 684.59375 105.98242 L 684.59375 103.4668 C 684.59375 103.34857 684.56086 103.26359 684.47656 103.21289 L 681.09766 100.94922 L 680.15234 100.3418 C 679.96677 100.22357 679.64549 100.05482 679.18945 99.818359 C 678.29428 99.345435 677.46617 99.158203 676.58789 99.158203 z M 676.60547 101.77734 C 677.02771 101.77734 677.43244 101.94541 677.78711 102.2832 C 678.142 102.62101 678.31055 103.04477 678.31055 103.56836 C 678.31055 104.56488 677.5689 105.375 676.62305 105.375 C 675.6603 105.375 674.9668 104.5311 674.9668 103.56836 C 674.9668 102.53807 675.64272 101.77734 676.60547 101.77734 z "
     transform="matrix(0.26458561,0,0,0.26458561,0,-4.5828884e-4)" />
  <path
     id="path950"
     style="stroke-width:3.7795;fill-opacity:1;fill:#ffffff"
     d="M 680.91211 89.033203 C 679.83117 89.033203 678.90263 89.50728 678.14258 90.453125 C 677.51764 89.828189 676.80752 89.505859 676.01367 89.505859 C 675.05092 89.505859 674.22377 89.912619 673.53125 90.740234 C 672.83877 91.550959 672.50195 92.530472 672.50195 93.662109 C 672.50195 94.810637 672.83885 95.788885 673.53125 96.599609 C 674.22377 97.410338 675.05092 97.816406 676.01367 97.816406 C 676.80752 97.816406 677.53522 97.496026 678.16016 96.871094 C 678.92021 97.800052 679.83117 98.271484 680.91211 98.271484 C 681.99308 98.271484 682.90528 97.832677 683.64844 96.9375 C 684.3916 96.042323 684.76367 94.927493 684.76367 93.626953 C 684.76367 92.343308 684.39168 91.262361 683.64844 90.367188 C 682.90528 89.472007 681.99308 89.033203 680.91211 89.033203 z M 680.91211 91.617188 C 681.67217 91.617185 682.31445 92.529097 682.31445 93.626953 C 682.31445 94.184327 682.17825 94.674716 681.9082 95.080078 C 681.62096 95.48544 681.3006 95.6875 680.91211 95.6875 C 680.1183 95.6875 679.52734 94.775481 679.52734 93.626953 C 679.52734 92.529097 680.1183 91.617184 680.91211 91.617188 z M 676.01367 92.023438 C 676.57103 92.023438 677.06055 92.766936 677.06055 93.662109 C 677.06055 94.557287 676.57103 95.298828 676.01367 95.298828 C 675.38873 95.298828 674.86523 94.557287 674.86523 93.662109 C 674.86523 92.766936 675.38873 92.023438 676.01367 92.023438 z "
     transform="matrix(0.26458561,0,0,0.26458561,0,-4.5828884e-4)" />
  <path
     id="path946"
     style="stroke-width:3.7795;fill-opacity:1;fill:#ffffff"
     d="M 676.47461 79.820312 C 675.29649 79.845898 674.36962 80.269038 673.66602 81.103516 C 672.93975 81.948021 672.58594 82.996226 672.58594 84.246094 C 672.58594 85.479071 672.9396 86.525326 673.66602 87.386719 C 674.39232 88.231224 675.40524 88.654297 676.72266 88.654297 C 677.78674 88.654297 678.6833 88.31553 679.44336 87.623047 C 680.18652 86.930553 680.55859 86.119783 680.55859 85.224609 C 680.55859 84.633455 680.40634 84.160066 680.11914 83.822266 C 680.06854 83.754686 680.13344 83.790011 680.15234 83.806641 L 684.35742 86.744141 C 684.50935 86.845469 684.59375 86.813437 684.59375 86.644531 L 684.59375 84.126953 C 684.59375 84.008731 684.56086 83.923697 684.47656 83.873047 L 681.09766 81.609375 L 680.15234 81.001953 C 679.96677 80.883731 679.64549 80.714984 679.18945 80.478516 C 678.29428 80.005595 677.46617 79.820315 676.58789 79.820312 C 676.54931 79.820312 676.51261 79.819487 676.47461 79.820312 z M 676.60547 82.4375 C 677.02771 82.4375 677.43244 82.607516 677.78711 82.945312 C 678.142 83.283127 678.31055 83.704923 678.31055 84.228516 C 678.31055 85.225032 677.5689 86.035156 676.62305 86.035156 C 675.6603 86.035156 674.9668 85.191251 674.9668 84.228516 C 674.9668 83.198218 675.64272 82.4375 676.60547 82.4375 z "
     transform="matrix(0.26458561,0,0,0.26458561,0,-4.5828884e-4)" />
  <path
     style="stroke-width:3.7795;fill:#e67f34;fill-opacity:1"
     d="M 568.74414,53.123094 559.4043,62.5645 c -10.78555,10.901954 -14.06897,15.047965 -17.80274,22.476563 -3.95108,7.860594 -5.31054,13.613056 -5.31054,22.482427 0,12.87069 3.1094,21.19429 13.83984,37.05078 9.74958,14.40743 12.54883,20.86753 12.54883,28.96094 0,9.38033 -4.57306,15.99078 -14.32227,20.70117 -6.81443,3.2922 -13.78152,5.23498 -21.83789,6.09179 -3.16797,0.33682 -27.10703,0.61745 -53.19726,0.625 l -47.43555,0.01 -6.32227,-1.58789 c -20.23579,-5.08191 -33.89561,-18.61127 -39.07617,-38.70117 -1.38889,-5.38654 -1.54399,-7.09942 -1.29492,-14.43164 0.3239,-9.53151 1.64392,-15.33557 5.16602,-22.72071 4.93035,-10.33805 13.34799,-18.8588 23.66601,-23.955077 7.79483,-3.850171 13.04528,-5.051288 22.17578,-5.066406 8.39464,-0.01512 12.98519,0.82 19.31055,3.511719 17.77005,7.561634 29.53571,23.792064 31.71875,43.751954 l 0.49023,4.48047 19.45703,0.16992 19.45704,0.16797 -0.4043,-6.24805 c -1.0832,-16.74014 -8.90231,-38.13394 -18.95313,-51.853514 -11.98024,-16.355393 -28.81968,-27.3856 -49.23046,-32.244141 -16.86984,-4.016091 -33.08671,-3.980229 -46.84376,0.103516 -10.2103,3.030701 -23.48614,10.942154 -34.34765,20.46875 -5.82723,5.110633 -16.80299,17.516548 -16.81055,19 -0.002,0.419977 0.83829,3.298533 1.86914,6.398439 2.26698,6.81745 3.62617,13.27315 4.56836,21.70899 1.97781,17.70844 -3.52637,39.9726 -13.52344,54.70507 l -2.42578,3.57618 2.08399,5.16992 c 4.37741,10.85698 13.62271,23.10634 23.4082,31.01758 12.78263,10.33465 29.97046,18.23553 46.92188,21.5664 3.59305,0.70612 7.10838,1.4151 7.8125,1.57422 0.704,0.1595 25.32983,0.21041 54.7207,0.11328 46.13252,-0.15269 54.26981,-0.32049 59.51953,-1.22851 17.37585,-3.00614 29.31007,-8.56897 42.81836,-19.95508 15.93057,-13.42968 25.99369,-36.84656 23.7207,-55.19336 -1.31878,-10.64457 -3.57472,-15.26479 -15.98828,-32.72266 -9.08024,-12.76978 -9.86341,-14.72651 -9.86719,-24.69531 -0.004,-8.824752 0.48181,-10.326404 5.9961,-18.49805 3.73879,-5.54074 7.7489,-10.261517 21.6582,-25.501953 l 9.7832,-10.720703 h -24.1875 z"
     transform="matrix(0.26458561,0,0,0.26458561,0,-4.5828884e-4)"
     id="path928" />
  <path
     style="stroke-width:3.7795;fill:#a2382a;fill-opacity:1"
     d="M 226.04297,52.482422 V 243.20312 h 46.05664 l 0.16992,-17.11718 0.16992,-17.1211 8,-0.4375 c 41.63114,-2.28172 74.25901,-36.37369 74.23633,-77.56836 -0.008,-13.61941 -2.81709,-25.57039 -8.6543,-36.812496 -11.01155,-21.20788 -32.91305,-36.721868 -57.4707,-40.705078 -4.55996,-0.739534 -12.19096,-0.951122 -34.1914,-0.953125 z"
     id="path924"
     transform="matrix(0.26458561,0,0,0.26458561,0,-4.5828884e-4)" />
  <path
     id="path890"
     style="stroke-width:3.7795;fill:#ffffff"
     d="M 563.00391 12.958984 C 562.59888 12.958984 562.51758 13.066049 562.51758 13.498047 L 562.51758 31.427734 C 562.51758 31.724735 562.65215 31.859375 562.94922 31.859375 L 566.48633 31.859375 C 566.83747 31.859375 566.91797 31.751733 566.91797 31.427734 L 566.91797 25.621094 C 566.91797 25.351094 567.02638 25.216797 567.24219 25.216797 L 568.42969 25.216797 L 571.91211 31.507812 C 572.10108 31.750815 572.31597 31.859375 572.58594 31.859375 L 576.87891 31.859375 C 577.33793 31.859375 577.28504 31.453015 577.12305 31.291016 L 573.02148 24.298828 C 574.88447 23.299834 575.82812 21.410578 575.82812 18.683594 C 575.82812 16.955604 575.45108 15.767494 574.37109 14.6875 C 573.2911 13.580506 571.15706 12.958984 567.99805 12.958984 L 563.00391 12.958984 z M 567.11719 17.035156 C 567.14561 17.034579 567.17771 17.035156 567.21484 17.035156 L 568.29492 17.035156 C 570.23891 17.035156 571.21094 17.738242 571.21094 19.115234 C 571.21094 20.492227 570.23891 21.166016 568.29492 21.166016 L 567.26953 21.166016 C 566.94567 21.166016 566.91797 21.113063 566.91797 20.789062 L 566.91797 17.332031 C 566.91797 17.07216 566.91822 17.039194 567.11719 17.035156 z "
     transform="matrix(0.26458561,0,0,0.26458561,0,-4.5828884e-4)" />
  <path
     id="path882"
     style="stroke-width:3.7795;fill:#ffffff"
     d="M 503.08203 12.958984 C 502.83901 12.958984 502.70508 13.067548 502.70508 13.310547 L 502.70508 31.507812 C 502.70508 31.750815 502.83965 31.859375 503.13672 31.859375 L 506.64648 31.859375 C 506.9976 31.859375 507.10547 31.777702 507.10547 31.345703 L 507.10547 26.486328 C 507.10547 26.135328 507.21353 26.054688 507.56445 26.054688 L 508.05078 26.054688 C 511.15575 26.054688 513.36959 25.325633 514.47656 24.056641 C 515.58358 22.787648 516.01566 21.410208 516.01562 19.574219 C 516.01565 16.064239 514.58465 12.958984 507.42969 12.958984 L 503.08203 12.958984 z M 507.45703 17.035156 L 508.26758 17.035156 C 510.34656 17.035156 511.39844 17.872541 511.39844 19.519531 C 511.39844 21.166522 510.37391 21.976562 508.29492 21.976562 L 507.56445 21.976562 C 507.15947 21.976562 507.10547 21.896842 507.10547 21.464844 L 507.10547 17.386719 C 507.10547 17.089716 507.15996 17.035156 507.45703 17.035156 z "
     transform="matrix(0.26458561,0,0,0.26458561,0,-4.5828884e-4)" />
  <path
     id="path876"
     style="stroke-width:3.7795;fill:#ffffff"
     d="M 388.80273 12.958984 C 388.55971 12.958984 388.42383 13.067548 388.42383 13.310547 L 388.42383 31.507812 C 388.42383 31.750815 388.5584 31.859375 388.85547 31.859375 L 392.36719 31.859375 C 392.7183 31.859375 392.82617 31.777702 392.82617 31.345703 L 392.82617 26.486328 C 392.82617 26.135328 392.93427 26.054688 393.28516 26.054688 L 393.76953 26.054688 C 396.8745 26.054688 399.08834 25.325633 400.19531 24.056641 C 401.30233 22.787648 401.73433 21.410208 401.73438 19.574219 C 401.73438 16.064239 400.3034 12.958984 393.14844 12.958984 L 388.80273 12.958984 z M 393.17578 17.035156 L 393.98633 17.035156 C 396.06531 17.035156 397.11914 17.872541 397.11914 19.519531 C 397.11914 21.166522 396.09266 21.976562 394.01367 21.976562 L 393.28516 21.976562 C 392.88017 21.976562 392.82617 21.896842 392.82617 21.464844 L 392.82617 17.386719 C 392.82617 17.089716 392.87871 17.035156 393.17578 17.035156 z "
     transform="matrix(0.26458561,0,0,0.26458561,0,-4.5828884e-4)" />
  <path
     id="path874"
     style="stroke-width:3.7795;fill:#ffffff"
     d="M 374.41406 12.958984 C 374.17108 12.958984 374.03711 13.067548 374.03711 13.310547 L 374.03711 31.507812 C 374.03711 31.750815 374.17176 31.859375 374.46875 31.859375 L 377.97852 31.859375 C 378.32963 31.859375 378.4375 31.777702 378.4375 31.345703 L 378.4375 26.486328 C 378.4375 26.135328 378.5456 26.054688 378.89648 26.054688 L 379.38281 26.054688 C 382.48778 26.054688 384.70162 25.325633 385.80859 24.056641 C 386.91561 22.787648 387.34766 21.410208 387.34766 19.574219 C 387.34766 16.064239 385.91668 12.958984 378.76172 12.958984 L 374.41406 12.958984 z M 378.78906 17.035156 L 379.59766 17.035156 C 381.67664 17.035156 382.73047 17.872541 382.73047 19.519531 C 382.73047 21.166522 381.70399 21.976562 379.625 21.976562 L 378.89648 21.976562 C 378.4915 21.976562 378.4375 21.896842 378.4375 21.464844 L 378.4375 17.386719 C 378.4375 17.089716 378.49199 17.035156 378.78906 17.035156 z "
     transform="matrix(0.26458561,0,0,0.26458561,0,-4.5828884e-4)" />
  <path
     id="path864"
     style="stroke-width:3.7795;fill:#ffffff"
     d="M 319.94531 12.958984 C 319.70233 12.958984 319.56836 13.067548 319.56836 13.310547 L 319.56836 31.507812 C 319.56836 31.750815 319.70301 31.859375 320 31.859375 L 323.50977 31.859375 C 323.86077 31.859375 323.96875 31.777702 323.96875 31.345703 L 323.96875 26.486328 C 323.96875 26.135328 324.07676 26.054688 324.42773 26.054688 L 324.91406 26.054688 C 328.01905 26.054688 330.23285 25.325633 331.33984 24.056641 C 332.44684 22.787648 332.87891 21.410208 332.87891 19.574219 C 332.87891 16.064239 331.44793 12.958984 324.29297 12.958984 L 319.94531 12.958984 z M 324.32031 17.035156 L 325.13086 17.035156 C 327.20985 17.035156 328.26172 17.872541 328.26172 19.519531 C 328.26172 21.166522 327.23524 21.976562 325.15625 21.976562 L 324.42773 21.976562 C 324.02275 21.976562 323.96875 21.896842 323.96875 21.464844 L 323.96875 17.386719 C 323.96875 17.089716 324.02332 17.035156 324.32031 17.035156 z "
     transform="matrix(0.26458561,0,0,0.26458561,0,-4.5828884e-4)" />
  <path
     id="path862"
     style="stroke-width:3.7795;fill:#ffffff"
     d="M 299.33203 12.958984 C 298.927 12.958984 298.8457 13.066049 298.8457 13.498047 L 298.8457 31.427734 C 298.8457 31.724735 298.98035 31.859375 299.27734 31.859375 L 302.81445 31.859375 C 303.16549 31.859375 303.24609 31.751733 303.24609 31.427734 L 303.24609 25.621094 C 303.24609 25.351094 303.35428 25.216797 303.57031 25.216797 L 304.75977 25.216797 L 308.24023 31.507812 C 308.42925 31.750815 308.64406 31.859375 308.91406 31.859375 L 313.20703 31.859375 C 313.66603 31.859375 313.61318 31.453015 313.45117 31.291016 L 309.34961 24.298828 C 311.2126 23.299834 312.15625 21.410578 312.15625 18.683594 C 312.15625 16.955604 311.77921 15.767494 310.69922 14.6875 C 309.61922 13.580506 307.48515 12.958984 304.32617 12.958984 L 299.33203 12.958984 z M 303.44727 17.035156 C 303.47574 17.034579 303.5078 17.035156 303.54492 17.035156 L 304.62305 17.035156 C 306.56703 17.035156 307.53906 17.738242 307.53906 19.115234 C 307.53906 20.492227 306.56703 21.166016 304.62305 21.166016 L 303.59766 21.166016 C 303.27369 21.166016 303.24609 21.113063 303.24609 20.789062 L 303.24609 17.332031 C 303.24609 17.07216 303.24795 17.039194 303.44727 17.035156 z "
     transform="matrix(0.26458561,0,0,0.26458561,0,-4.5828884e-4)" />
  <path
     style="fill:#a2382a;fill-opacity:1;stroke-width:3.7795"
     d="m 671.80468,0.00390625 -42,45.88867175 64.73829,-0.128906 V 0.00390625 Z"
     transform="matrix(0.26458561,0,0,0.26458561,0,-4.5828884e-4)"
     id="path32673"
     sodipodi:nodetypes="ccccc" />
  <path
     id="path846"
     style="stroke-width:3.7795;fill:#ffffff"
     d="M 606.36719 12.5 C 603.58624 12.5 601.23667 13.471683 599.26562 15.388672 C 597.32164 17.305661 596.34961 19.601141 596.34961 22.328125 C 596.34961 25.055109 597.32164 27.350589 599.26562 29.267578 C 601.23667 31.184567 603.58624 32.128906 606.36719 32.128906 C 609.14818 32.128906 611.49742 31.184567 613.44141 29.267578 C 615.41241 27.350589 616.38281 25.055109 616.38281 22.328125 C 616.38281 19.601141 615.41241 17.305661 613.44141 15.388672 C 611.49742 13.471683 609.14818 12.5 606.36719 12.5 z M 606.36719 16.603516 C 607.96021 16.603516 609.28361 17.17035 610.39062 18.277344 C 611.49764 19.384337 612.03711 20.735134 612.03711 22.328125 C 612.03711 23.921116 611.49764 25.269959 610.39062 26.376953 C 609.28361 27.483946 607.96021 28.052734 606.36719 28.052734 C 604.77421 28.052734 603.42338 27.483946 602.31641 26.376953 C 601.20939 25.269959 600.64258 23.921116 600.64258 22.328125 C 600.64258 20.735134 601.20939 19.384337 602.31641 18.277344 C 603.42338 17.17035 604.77421 16.603516 606.36719 16.603516 z "
     transform="matrix(0.26458561,0,0,0.26458561,0,-4.5828884e-4)" />
  <path
     id="path844"
     style="stroke-width:3.7795;fill:#ffffff"
     d="M 471.08984 12.5 C 468.30885 12.5 465.9612 13.471683 463.99023 15.388672 C 462.04625 17.305661 461.07422 19.601141 461.07422 22.328125 C 461.07422 25.055109 462.04625 27.350589 463.99023 29.267578 C 465.9612 31.184567 468.30885 32.128906 471.08984 32.128906 C 473.87083 32.128906 476.22008 31.184567 478.16406 29.267578 C 480.13503 27.350589 481.10742 25.055109 481.10742 22.328125 C 481.10742 19.601141 480.13503 17.305661 478.16406 15.388672 C 476.22008 13.471683 473.87083 12.5 471.08984 12.5 z M 471.08984 16.603516 C 472.68283 16.603516 474.0063 17.17035 475.11328 18.277344 C 476.2203 19.384337 476.75977 20.735134 476.75977 22.328125 C 476.75977 23.921116 476.2203 25.269959 475.11328 26.376953 C 474.0063 27.483946 472.68283 28.052734 471.08984 28.052734 C 469.49686 28.052734 468.14803 27.483946 467.04102 26.376953 C 465.93404 25.269959 465.36719 23.921116 465.36719 22.328125 C 465.36719 20.735134 465.93404 19.384337 467.04102 18.277344 C 468.14803 17.17035 469.49686 16.603516 471.08984 16.603516 z "
     transform="matrix(0.26458561,0,0,0.26458561,0,-4.5828884e-4)" />
  <path
     id="path840"
     style="stroke-width:3.7795;fill:#ffffff"
     d="M 288.35156 12.5 C 285.57058 12.5 283.22099 13.471683 281.25 15.388672 C 279.30601 17.305661 278.33398 19.601141 278.33398 22.328125 C 278.33398 25.055109 279.30601 27.350589 281.25 29.267578 C 283.22099 31.184567 285.57058 32.128906 288.35156 32.128906 C 291.13255 32.128906 293.48179 31.184567 295.42578 29.267578 C 297.39677 27.350589 298.36914 25.055109 298.36914 22.328125 C 298.36914 19.601141 297.39677 17.305661 295.42578 15.388672 C 293.48179 13.471683 291.13255 12.5 288.35156 12.5 z M 288.35156 16.603516 C 289.94455 16.603516 291.268 17.17035 292.375 18.277344 C 293.48199 19.384337 294.02148 20.735134 294.02148 22.328125 C 294.02148 23.921116 293.48199 25.269959 292.375 26.376953 C 291.268 27.483946 289.94455 28.052734 288.35156 28.052734 C 286.75857 28.052734 285.40973 27.483946 284.30273 26.376953 C 283.19574 25.269959 282.62695 23.921116 282.62695 22.328125 C 282.62695 20.735134 283.19574 19.384337 284.30273 18.277344 C 285.40973 17.17035 286.75857 16.603516 288.35156 16.603516 z "
     transform="matrix(0.26458561,0,0,0.26458561,0,-4.5828884e-4)" />
  <path
     style="stroke-width:3.7795;fill:#ffffff"
     d="m 482.34766,12.990234 c 0.0752,5.54e-4 0.15211,0.04074 0.1875,0.07617 l 9.01757,8.533203 c 0.24306,0.242999 0.32339,0.242999 0.56641,0 l 8.83008,-8.451171 c 0.18894,-0.216002 0.48633,-0.108811 0.48633,0.242187 v 18.089844 c 0,0.323996 -0.0277,0.378906 -0.35157,0.378906 h -3.42968 c -0.40513,0 -0.48633,-0.05399 -0.48633,-0.458984 v -8.371094 c 0,-0.188998 -0.18865,-0.188077 -0.26953,-0.08008 l -4.72461,4.507812 c -0.351,0.323997 -0.43145,0.296997 -0.72852,0 l -4.61719,-4.345703 c -0.29691,-0.242998 -0.40429,-0.108233 -0.40429,0.134766 v 8.207031 c 0,0.269998 -0.10854,0.40625 -0.35156,0.40625 h -3.40235 c -0.45894,0 -0.51367,-0.05433 -0.51367,-0.486328 v -18.08984 c 0,-0.22781 0.0947,-0.29368 0.19141,-0.292969 z"
     transform="matrix(0.26458561,0,0,0.26458561,0,-4.5828884e-4)"
     id="path900" />
  <path
     style="stroke-width:3.7795;fill:#ffffff"
     d="m 667.82617,12.958984 h 3.80664 c 0.29692,0 0.51287,0.107878 0.59375,0.296875 l 3.75391,5.345703 c 0.18897,0.324016 0.16195,0.323655 0.29687,-0.02734 l 3.53711,-5.15625 c 0.29696,-0.296997 0.45818,-0.431999 0.53907,-0.458985 h 3.94336 c 0.35111,0 0.45901,0.162331 0.29687,0.486328 l -6.02148,8.800782 c -0.0809,0.188999 -0.13477,0.405092 -0.13477,0.621094 v 8.640624 c 0,0.297 -0.0545,0.351563 -0.35156,0.351563 h -3.94141 c -0.24302,0 -0.35156,-0.161984 -0.35156,-0.458984 v -8.585938 c 0,-0.188999 -0.054,-0.405095 -0.16211,-0.621094 l -6.07422,-8.748047 c -0.24313,-0.323996 -0.13544,-0.486328 0.26953,-0.486328 z"
     transform="matrix(0.26458561,0,0,0.26458561,0,-4.5828884e-4)"
     id="path898" />
  <path
     style="stroke-width:3.7795;fill:#ffffff"
     d="m 651.07812,12.958984 h 15.66016 c 0.29707,0 0.35156,-1.21e-4 0.35156,0.296875 v 3.482422 c 0,0.297001 2e-4,0.296875 -0.29687,0.296875 h -5.31836 c -0.21657,0 -0.24414,0.05388 -0.24414,0.296875 v 14.06836 c 0,0.296997 -0.10854,0.458984 -0.35156,0.458984 h -3.83203 c -0.40557,0 -0.4336,-0.0013 -0.4336,-0.40625 v -14.09375 c 0,-0.215998 3.3e-4,-0.324219 -0.26953,-0.324219 h -5.23828 c -0.29707,0 -0.34961,-0.02527 -0.34961,-0.322265 v -3.375 c 0,-0.297 -0.002,-0.378907 0.32226,-0.378907 z"
     transform="matrix(0.26458561,0,0,0.26458561,0,-4.5828884e-4)"
     id="path896" />
  <path
     style="stroke-width:3.7795;fill:#ffffff"
     d="m 639.32617,12.958984 h 10.01758 c 0.43211,0 0.51172,0.08191 0.51172,0.378907 v 3.320312 c 0,0.323997 -0.054,0.376953 -0.45899,0.376953 h -6.01953 c -0.0276,0 -0.0547,3.58e-4 -0.0547,0.02734 v 3.078125 c 0,0.05401 0.0282,0.08203 0.0547,0.08203 h 6.10157 c 0.24305,0 0.37695,0.188409 0.37695,0.566406 v 2.726563 c 0,0.512996 -0.13393,0.783203 -0.37695,0.783203 h -6.04883 c -0.0816,0 -0.10742,0.02803 -0.10742,0.08203 v 3.347657 c 0,0.02702 0.026,0.05273 0.0801,0.05273 h 6.10157 c 0.32465,0 0.35156,0.162207 0.35156,0.783203 v 2.673828 c 0,0.404999 -0.18795,0.621094 -0.53906,0.621094 h -9.93555 c -0.32409,0 -0.459,0.02736 -0.45898,-0.431641 V 13.337891 c -4e-5,-0.351012 0.10722,-0.378907 0.40429,-0.378907 z"
     transform="matrix(0.26458561,0,0,0.26458561,0,-4.5828884e-4)"
     id="path894" />
  <path
     style="stroke-width:3.7795;fill:#ffffff"
     d="m 634.02148,12.958984 h 3.50977 c 0.29707,0 0.43164,0.108564 0.43164,0.351563 v 18.089844 c 0,0.350998 -0.0805,0.458984 -0.43164,0.458984 h -3.48242 c -0.43196,0 -0.48633,-0.08167 -0.48633,-0.513672 V 13.417969 c 0,-0.404996 0.054,-0.458985 0.45898,-0.458985 z"
     transform="matrix(0.26458561,0,0,0.26458561,0,-4.5828884e-4)"
     id="path892" />
  <path
     style="stroke-width:3.7795;fill:#ffffff"
     d="m 551.15234,12.958984 h 10.01758 c 0.43215,0 0.51367,0.08191 0.51367,0.378907 v 3.320312 c 0,0.323997 -0.054,0.376953 -0.45898,0.376953 h -6.02149 c -0.0276,0 -0.0547,3.58e-4 -0.0547,0.02734 v 3.078125 c 0,0.05401 0.0282,0.08203 0.0547,0.08203 h 6.10157 c 0.24309,0 0.3789,0.188409 0.3789,0.566406 v 2.726563 c 0,0.512996 -0.13588,0.783203 -0.3789,0.783203 h -6.04688 c -0.0816,0 -0.10937,0.02803 -0.10937,0.08203 v 3.347657 c 0,0.02702 0.028,0.05273 0.082,0.05273 h 6.10156 c 0.32466,0 0.35156,0.162207 0.35156,0.783203 v 2.673828 c 0,0.404999 -0.1899,0.621094 -0.54101,0.621094 H 551.207 c -0.32405,0 -0.45898,0.02736 -0.45898,-0.431641 V 13.337891 c 0,-0.351012 0.10723,-0.378907 0.40429,-0.378907 z"
     transform="matrix(0.26458561,0,0,0.26458561,0,-4.5828884e-4)"
     id="path888" />
  <path
     style="stroke-width:3.7795;fill:#ffffff"
     d="m 533.92773,12.958984 h 15.66016 c 0.29707,0 0.34961,-1.21e-4 0.34961,0.296875 v 3.482422 c 0,0.297001 2.2e-4,0.296875 -0.29688,0.296875 h -5.31835 c -0.21657,0 -0.24414,0.05388 -0.24415,0.296875 v 14.06836 c 0,0.296997 -0.10658,0.458984 -0.3496,0.458984 h -3.83399 c -0.40554,0 -0.43164,-0.0013 -0.43164,-0.40625 v -14.09375 c 0,-0.215998 -0.002,-0.324219 -0.27148,-0.324219 h -5.23633 c -0.29707,0 -0.35156,-0.02527 -0.35156,-0.322265 v -3.375 c 0,-0.297 3.1e-4,-0.378907 0.32421,-0.378907 z"
     transform="matrix(0.26458561,0,0,0.26458561,0,-4.5828884e-4)"
     id="path886" />
  <path
     style="stroke-width:3.7795;fill:#ffffff"
     d="m 517.94336,12.958984 h 3.91406 c 0.35097,0 0.40625,0.0533 0.40625,0.404297 v 10.828125 c 0,2.510986 1.24212,3.564453 3.07813,3.564453 1.99795,0 2.99609,-1.188466 2.99609,-3.564453 V 13.417969 c 0,-0.296997 0.10803,-0.458985 0.32422,-0.458985 h 3.83398 c 0.29688,0 0.45899,0.135908 0.45899,0.378907 v 10.933593 c 0,5.23797 -2.53735,7.857422 -7.61328,7.857422 -5.12999,0 -7.69532,-2.619452 -7.69532,-7.857422 V 13.310547 c 0,-0.296997 -1.9e-4,-0.351563 0.29688,-0.351563 z"
     transform="matrix(0.26458561,0,0,0.26458561,0,-4.5828884e-4)"
     id="path884" />
  <path
     style="stroke-width:3.7795;fill:#ffffff"
     d="m 426.24805,12.958984 h 10.01562 c 0.43211,0 0.51367,0.08191 0.51367,0.378907 v 3.320312 c 0,0.323997 -0.054,0.376953 -0.45898,0.376953 h -6.02148 c -0.0276,0 -0.0527,3.58e-4 -0.0527,0.02734 v 3.078125 c 0,0.05401 0.0263,0.08203 0.0527,0.08203 h 6.10156 c 0.24306,0 0.3789,0.188409 0.3789,0.566406 v 2.726563 c 0,0.512996 -0.13588,0.783203 -0.3789,0.783203 h -6.04688 c -0.0816,0 -0.10742,0.02803 -0.10742,0.08203 v 3.347657 c 0,0.02702 0.026,0.05273 0.0801,0.05273 h 6.10156 c 0.32466,0 0.35156,0.162207 0.35156,0.783203 v 2.673828 c 0,0.404999 -0.1899,0.621094 -0.54101,0.621094 h -9.93555 c -0.32405,0 -0.45898,0.02736 -0.45898,-0.431641 V 13.337891 c 0,-0.351012 0.10918,-0.378907 0.40625,-0.378907 z"
     transform="matrix(0.26458561,0,0,0.26458561,0,-4.5828884e-4)"
     id="path880" />
  <path
     style="stroke-width:3.7795;fill:#ffffff"
     d="m 403.17188,12.958984 h 3.50976 c 0.29707,0 0.43359,0.108564 0.43359,0.351563 v 18.089844 c 0,0.350998 -0.0825,0.458984 -0.43359,0.458984 h -3.48242 c -0.43196,0 -0.48633,-0.08167 -0.48633,-0.513672 V 13.417969 c 0,-0.404996 0.0539,-0.458985 0.45899,-0.458985 z"
     transform="matrix(0.26458561,0,0,0.26458561,0,-4.5828884e-4)"
     id="path878" />
  <path
     style="stroke-width:3.7795;fill:#ffffff"
     d="m 368.87695,12.958984 h 3.50977 c 0.29699,0 0.43164,0.108564 0.43164,0.351563 v 18.089844 c 0,0.350998 -0.0806,0.458984 -0.43164,0.458984 h -3.48242 c -0.43199,0 -0.48633,-0.08167 -0.48633,-0.513672 V 13.417969 c 0,-0.404996 0.054,-0.458985 0.45898,-0.458985 z"
     transform="matrix(0.26458561,0,0,0.26458561,0,-4.5828884e-4)"
     id="path872" />
  <path
     style="stroke-width:3.7795;fill:#ffffff"
     d="m 356.94336,12.958984 h 3.45703 c 0.54,0 0.67383,0.189441 0.67383,0.648438 v 13.769531 c 0,0.188998 4.4e-4,0.189453 0.18945,0.189453 h 5.34571 c 0.405,0 0.48632,0.107065 0.48632,0.539063 v 3.160156 c 0,0.458997 -0.0817,0.59375 -0.51367,0.59375 h -9.23242 c -0.64799,0 -0.70313,-0.05513 -0.70313,-0.703125 V 13.310547 c 0,-0.242999 0.10787,-0.351563 0.29688,-0.351563 z"
     transform="matrix(0.26458561,0,0,0.26458561,0,-4.5828884e-4)"
     id="path870" />
  <path
     style="stroke-width:3.7795;fill:#ffffff"
     d="m 351.1875,12.958984 h 3.50977 c 0.29699,0 0.43359,0.108564 0.43359,0.351563 v 18.089844 c 0,0.350998 -0.0826,0.458984 -0.43359,0.458984 h -3.48243 c -0.43198,0 -0.48632,-0.08167 -0.48632,-0.513672 V 13.417969 c 0,-0.404996 0.054,-0.458985 0.45898,-0.458985 z"
     transform="matrix(0.26458561,0,0,0.26458561,0,-4.5828884e-4)"
     id="path868" />
  <path
     style="stroke-width:3.7795;fill:#ffffff"
     d="m 334.58789,12.958984 h 3.61914 c 0.243,0 0.37695,0.134298 0.37695,0.404297 v 6.777344 c 0,0.05401 0.0279,0.08203 0.0547,0.08203 h 6.20899 c 0.081,0 0.13476,-0.05377 0.13476,-0.134765 v -6.72461 c 0,-0.269997 0.16235,-0.404297 0.48633,-0.404297 h 3.375 c 0.37798,0 0.56836,0.216096 0.56836,0.621094 v 17.847656 c 0,0.296998 -0.1366,0.431641 -0.43359,0.431641 h -3.4004 c -0.40498,0 -0.5957,-0.190018 -0.5957,-0.541016 v -6.75 c 0,-0.189001 -0.0805,-0.269531 -0.26953,-0.269531 h -6.04687 c -0.0542,0 -0.082,0.02803 -0.082,0.08203 v 7.046875 c 0,0.296998 -0.13429,0.431641 -0.40429,0.431641 h -3.53711 c -0.32401,0 -0.48633,-0.13625 -0.48633,-0.40625 V 13.445312 c 0,-0.323996 0.13465,-0.486328 0.43164,-0.486328 z"
     transform="matrix(0.26458561,0,0,0.26458561,0,-4.5828884e-4)"
     id="path866" />
  <path
     style="stroke-width:3.7795;fill:#ffffff"
     d="m 273.11523,12.958984 h 3.50977 c 0.29699,0 0.43164,0.108564 0.43164,0.351563 v 18.089844 c 0,0.350998 -0.0806,0.458984 -0.43164,0.458984 h -3.48242 c -0.43199,0 -0.48633,-0.08167 -0.48633,-0.513672 V 13.417969 c 0,-0.404996 0.054,-0.458985 0.45898,-0.458985 z"
     transform="matrix(0.26458561,0,0,0.26458561,0,-4.5828884e-4)"
     id="path860" />
  <path
     style="stroke-width:3.7795;fill:#ffffff"
     d="m 239.07812,12.958984 h 3.91602 c 0.35099,0 0.4043,0.0533 0.4043,0.404297 v 10.828125 c 0,2.510986 1.24213,3.564453 3.07812,3.564453 1.99799,0 2.9961,-1.188466 2.9961,-3.564453 V 13.417969 c 0,-0.296997 0.10819,-0.458985 0.32422,-0.458985 h 3.83398 c 0.29701,0 0.45898,0.135908 0.45898,0.378907 v 10.933593 c 0,5.23797 -2.53731,7.857422 -7.61328,7.857422 -5.12997,0 -7.69531,-2.619452 -7.69531,-7.857422 V 13.310547 c 0,-0.296997 -1.2e-4,-0.351563 0.29687,-0.351563 z"
     transform="matrix(0.26458561,0,0,0.26458561,0,-4.5828884e-4)"
     id="path858" />
  <path
     style="stroke-width:3.7795;fill:#ffffff"
     d="m 232.94141,12.958984 h 3.64453 c 0.24299,0 0.3789,0.134641 0.3789,0.431641 v 11.394531 c 0,2.672985 -0.86403,4.617616 -2.45703,5.72461 -1.59299,1.079994 -3.48418,1.565486 -6.07617,1.646484 C 228.13464,32.15625 228,32.02 228,31.75 v -3.212891 c 0,-0.404998 0.0806,-0.511718 0.43164,-0.511718 2.75398,0 4.13086,-1.377219 4.13086,-4.158203 V 13.363281 c 0,-0.269997 0.13592,-0.404297 0.37891,-0.404297 z"
     transform="matrix(0.26458561,0,0,0.26458561,0,-4.5828884e-4)"
     id="path856" />
  <path
     style="stroke-width:3.7795;fill:#ffffff"
     d="m 409.06055,12.902344 c 0.0665,0.003 0.15733,0.05775 0.27539,0.164062 l 10.47656,9.720703 v -9.558593 c 0,-0.189002 0.0545,-0.269532 0.18945,-0.269532 h 3.72657 c 0.29706,0 0.29687,0.05388 0.29687,0.296875 V 31.75 c 0,0.242999 -0.18878,0.244375 -0.29687,0.109375 l -10.58399,-9.613281 v 9.261718 c 0,0.297 -0.0271,0.351563 -0.32422,0.351563 h -3.59179 c -0.29707,0 -0.29688,-0.05456 -0.29688,-0.351563 V 13.148438 c 0,-0.167064 0.0435,-0.249891 0.12891,-0.246094 z"
     transform="matrix(0.26458561,0,0,0.26458561,0,-4.5828884e-4)"
     id="path854" />
  <path
     style="stroke-width:3.7795;fill:#ffffff"
     d="m 255.875,12.902344 c 0.0664,0.003 0.15726,0.05775 0.27539,0.164062 l 10.47656,9.720703 v -9.558593 c 0,-0.189002 0.0544,-0.269532 0.18946,-0.269532 h 3.72461 c 0.29699,0 0.29687,0.05388 0.29687,0.296875 V 31.75 c 0,0.242999 -0.18886,0.244375 -0.29687,0.109375 l -10.58399,-9.613281 v 9.261718 c 0,0.297 -0.0253,0.351563 -0.32226,0.351563 h -3.5918 c -0.29699,0 -0.29688,-0.05456 -0.29688,-0.351563 V 13.148438 c 0,-0.167064 0.0435,-0.249891 0.12891,-0.246094 z"
     transform="matrix(0.26458561,0,0,0.26458561,0,-4.5828884e-4)"
     id="path852" />
  <path
     style="stroke-width:3.7795;fill:#ffffff"
     d="m 589.70508,12.689453 c 1.99799,0 3.50949,0.296285 4.5625,0.863281 0.18897,0.108 0.29687,0.296407 0.29687,0.566407 v 3.457031 c 0,0.189001 -0.21663,0.242765 -0.35156,0.134766 -0.999,-0.836999 -2.18548,-1.242188 -3.5625,-1.242188 -1.78199,0 -2.67383,0.5411 -2.67383,1.621094 0,0.512997 0.16116,0.835237 0.70117,1.240234 l 0.64844,0.40625 c 0.16199,0.081 0.48701,0.242986 1,0.458984 0.51299,0.189003 0.83575,0.323299 0.97071,0.404297 1.32301,0.647997 1.97134,0.999631 2.94335,1.890625 0.97198,0.863996 1.43163,2.10496 1.43165,3.751954 -4e-5,4.508974 -3.26669,5.886718 -6.72266,5.886718 -1.94402,0 -3.59177,-0.296972 -4.96875,-0.917968 -0.18898,-0.081 -0.29688,-0.24333 -0.29688,-0.486329 v -3.589843 c 0,-0.216002 0.10854,-0.270109 0.35157,-0.16211 1.32297,0.863995 2.61843,1.294922 3.9414,1.294922 2.268,0 3.40235,-0.64702 3.40235,-1.916016 0,-0.647996 -0.2703,-1.134065 -0.94532,-1.539062 -0.351,-0.216 -0.64808,-0.378672 -0.91797,-0.513672 -0.24302,-0.134999 -0.64788,-0.297674 -1.21484,-0.513672 l -1.21484,-0.484375 c -2.18701,-0.998994 -3.56446,-2.431096 -3.56446,-5.455078 0,-3.212982 2.43064,-5.15625 6.1836,-5.15625 z"
     transform="matrix(0.26458561,0,0,0.26458561,0,-4.5828884e-4)"
     id="path850" />
  <path
     style="stroke-width:3.7795;fill:#ffffff"
     d="m 627.07812,12.5 c 1.89001,0 3.59153,0.377161 5.10352,1.160156 0.40554,0.215999 0.43164,0.325471 0.43164,0.730469 v 3.103516 c 0,0.377998 -0.18795,0.460138 -0.53906,0.24414 -1.215,-0.755996 -2.89009,-1.134765 -4.9961,-1.134765 -1.59298,0 -2.94181,0.566834 -4.04882,1.673828 -1.10698,1.106993 -1.67383,2.45779 -1.67383,4.050781 0,1.592991 0.56685,2.941834 1.67383,4.048828 1.10701,1.106993 2.45584,1.675781 4.04882,1.675781 1.269,2e-6 2.24104,-0.0818 2.91602,-0.216796 0.702,-0.162003 1.40382,-0.404862 2.13281,-0.75586 0.32387,-0.162 0.48633,-0.107543 0.48633,0.189453 v 3.212891 c 0,0.269999 -0.13444,0.45875 -0.4043,0.59375 -1.53897,0.701996 -3.26784,1.052734 -5.13086,1.052734 -2.78099,0 -5.12864,-0.944339 -7.0996,-2.861328 -1.94403,-1.916989 -2.91602,-4.212469 -2.91602,-6.939453 0,-2.726984 0.97199,-5.022464 2.91602,-6.939453 C 621.94948,13.471683 624.29713,12.5 627.07812,12.5 Z"
     transform="matrix(0.26458561,0,0,0.26458561,0,-4.5828884e-4)"
     id="path848" />
  <path
     style="stroke-width:3.7795;fill:#ffffff"
     d="m 454.63672,12.5 c 1.89001,0 3.58957,0.377161 5.10156,1.160156 0.40554,0.215999 0.4336,0.325471 0.4336,0.730469 v 3.103516 c -3e-5,0.377998 -0.18991,0.460138 -0.54102,0.24414 -1.21499,-0.755996 -2.88813,-1.134765 -4.99414,-1.134765 -1.59298,0 -2.94381,0.566834 -4.05078,1.673828 -1.10702,1.106993 -1.67383,2.45779 -1.67383,4.050781 0,1.592991 0.56681,2.941834 1.67383,4.048828 1.10697,1.106993 2.4578,1.675781 4.05078,1.675781 1.269,2e-6 2.24103,-0.0818 2.91601,-0.216796 0.70201,-0.162003 1.40383,-0.404862 2.13282,-0.75586 0.32386,-0.162 0.48631,-0.107543 0.48633,0.189453 v 3.212891 c -4e-5,0.269999 -0.13637,0.45875 -0.40626,0.59375 -1.53897,0.701996 -3.26591,1.052734 -5.1289,1.052734 -2.78095,0 -5.13056,-0.944339 -7.10156,-2.861328 -1.94399,-1.916989 -2.91602,-4.212469 -2.91602,-6.939453 0,-2.726984 0.97203,-5.022464 2.91602,-6.939453 1.971,-1.916989 4.32061,-2.888672 7.10156,-2.888672 z"
     transform="matrix(0.26458561,0,0,0.26458561,0,-4.5828884e-4)"
     id="path842" />
  <g
     aria-label="JUNIOR PHILIPPINE COMPUTER SOCIETY"
     id="text2344"
     style="font-size:7.14377px;line-height:1.25;font-family:Steagal;-inkscape-font-specification:Steagal;letter-spacing:0px;stroke-width:0.261358;fill:#ffffff"
     transform="translate(-0.20647091,9.0485742)" />
  <g
     aria-label="ESTABLISHED 1989"
     transform="rotate(-90,2.0372622,-2.0372622)"
     id="text3164"
     style="font-size:4.46888px;line-height:1.25;font-family:ZonaPro-Black;-inkscape-font-specification:ZonaPro-Black;letter-spacing:-0.167583px;fill:#ffffff;stroke-width:0.111722" />
  <path
     id="path7758"
     style="font-weight:bold;font-stretch:condensed;font-size:19.2733px;line-height:1.25;font-family:Univers;-inkscape-font-specification:'Univers Bold Condensed';stroke-width:0.481834;fill:#f39f3f;fill-opacity:1"
     d="m 16.499393,70.815403 c -3.546288,0 -4.586839,1.734573 -4.586839,3.912456 0,4.14376 5.858607,4.298244 5.858607,6.803777 0,0.94439 -0.481584,1.58028 -1.464523,1.58028 -1.599683,0 -1.657277,-1.118084 -1.657277,-2.447936 H 11.73892 c -0.154188,2.409161 0.520224,4.529478 4.124331,4.529478 2.216429,0 4.85711,-0.424101 4.85711,-4.028212 0,-4.375037 -5.859125,-4.143697 -5.859125,-6.78414 0,-0.963665 0.558888,-1.484161 1.503281,-1.484161 1.175671,0 1.349283,1.059909 1.349283,2.100667 h 2.832926 c 0.192733,-2.91027 -1.214158,-4.182209 -4.047333,-4.182209 z m 54.436422,0 c -4.799051,0 -4.799231,3.508087 -4.799231,7.189285 0,3.642651 1.8e-4,7.18877 4.799231,7.18877 2.717537,0 4.201847,-1.195236 4.201847,-4.914987 h -2.872201 c -0.03855,1.098581 0.01948,2.833445 -1.329646,2.833445 -1.63823,0 -1.85003,-1.541667 -1.85003,-5.107228 0,-3.565558 0.2118,-5.107743 1.85003,-5.107743 0.867298,0 1.194771,0.693818 1.194771,2.544054 h 2.852563 c 0.11564,-2.987362 -1.079245,-4.625596 -4.047334,-4.625596 z m 33.693325,0 c -4.799042,0 -4.798717,3.508087 -4.798717,7.189285 0,3.642651 -3.25e-4,7.18877 4.798717,7.18877 2.71754,0 4.20185,-1.195236 4.20185,-4.914987 h -2.87169 c -0.0386,1.098581 0.019,2.833445 -1.33016,2.833445 -1.63823,0 -1.85003,-1.541667 -1.85003,-5.107228 0,-3.565558 0.2118,-5.107743 1.85003,-5.107743 0.8673,0 1.19529,0.693818 1.19529,2.544054 h 2.85204 c 0.11564,-2.987362 -1.07924,-4.625596 -4.04733,-4.625596 z m 16.58208,0 c -4.79905,0 -4.79872,3.508087 -4.79872,7.189285 0,3.642651 -3.3e-4,7.18877 4.79872,7.18877 2.71754,0 4.20184,-1.195236 4.20184,-4.914987 h -2.87168 c -0.0386,1.098581 0.019,2.833445 -1.33016,2.833445 -1.63823,0 -1.85004,-1.541667 -1.85004,-5.107228 0,-3.565558 0.21181,-5.107743 1.85004,-5.107743 0.86729,0 1.19528,0.693818 1.19528,2.544054 h 2.85205 c 0.11564,-2.987362 -1.07924,-4.625596 -4.04733,-4.625596 z m 10.71623,0 c -4.79905,0 -4.79923,3.508087 -4.79923,7.189285 0,3.642651 1.8e-4,7.18877 4.79923,7.18877 4.79905,0 4.79871,-3.546119 4.79871,-7.18877 0,-3.681198 3.4e-4,-7.189285 -4.79871,-7.189285 z m 38.13288,0 c -4.76051,0 -4.9341,3.565791 -4.9341,7.073529 0,5.280891 0.55907,7.304526 5.45449,7.304526 1.15639,0 3.14137,-0.308316 3.93158,-0.462506 v -7.053895 h -4.49072 v 2.138908 h 1.58028 v 3.084076 c -0.44329,0.15419 -0.96357,0.269753 -1.44541,0.269753 -1.6575,0 -2.08154,-0.771103 -2.08154,-5.126865 0,-2.69826 1e-4,-5.145981 1.81179,-5.145984 1.54186,0 1.75407,1.136985 1.73479,2.428298 h 2.89081 c 0.17346,-2.91027 -1.59952,-4.50984 -4.45197,-4.50984 z M 3.6334013,71.046915 -0.22117703,84.961946 H 2.650507 L 3.4411631,81.878388 H 7.410981 l 0.7710189,3.083558 H 11.246439 L 7.4688591,71.046915 Z m 19.1685037,0 V 84.961946 H 25.71183 V 71.046915 Z m 8.152545,0 -3.854578,13.915031 h 2.871682 l 0.79014,-3.083558 h 3.970335 l 0.771018,3.083558 h 3.064438 L 34.789907,71.046915 Z m 12.749719,0 v 13.915031 h 2.910442 v -5.666368 h 2.158542 c 3.411374,0 3.874216,-2.505166 3.874216,-4.085575 0,-2.544075 -1.040867,-4.163088 -3.700582,-4.163088 z m 13.586368,0 -3.854578,13.915031 h 2.871682 l 0.79014,-3.083558 h 3.970335 l 0.770502,3.083558 h 3.064954 L 61.125994,71.046915 Z m 20.7555,0 v 13.915031 h 2.910442 V 71.046915 Z m 6.358323,0 v 13.915031 h 2.910442 v -6.070999 h 4.124331 v -2.139423 h -4.124331 v -3.565186 h 4.317087 v -2.139423 z m 9.673395,0 v 13.915031 h 2.910442 V 71.046915 Z m 44.980585,0 v 13.915031 h 7.26629 v -2.312539 h -4.35585 V 71.046915 Z m 8.55718,0 v 13.915031 h 7.26628 v -2.312539 h -4.35584 V 71.046915 Z m 8.53805,0 v 13.915031 h 7.74791 v -2.138905 h -4.83747 v -4.066969 h 4.31709 v -2.139423 h -4.31709 v -3.430311 h 4.68348 v -2.139423 z m 19.82532,0 v 13.915031 h 7.74791 v -2.138905 h -4.83799 v -4.066969 h 4.3176 v -2.139423 h -4.3176 v -3.430311 h 4.68348 v -2.139423 z m -44.05144,1.85003 c 1.63823,0 1.85003,1.542185 1.85003,5.107743 0,3.565561 -0.2118,5.107228 -1.85003,5.107228 -1.63823,0 -1.85055,-1.541667 -1.85055,-5.107228 0,-3.565558 0.21232,-5.107743 1.85055,-5.107743 z m -85.312839,0.289393 h 1.465039 c 1.310583,0 1.618518,0.963539 1.618518,2.100665 0,0.925118 -0.597222,1.869667 -1.464521,1.869667 H 46.614611 Z M 5.3490736,73.725844 h 0.038241 l 1.4071615,6.013121 H 4.0189107 Z m 27.3205314,0 h 0.03876 l 1.406645,6.013121 h -2.775048 z m 26.336087,0 h 0.03876 l 1.406646,6.013121 H 57.67605 Z" />
</svg>
